# xmcd CD database file generated by RipIT.
#
# Track frame offsets:
# 150
# 17716
# 36826
# 60493
# 81288
# 109165
# 147071
# 169298
# 196525
# 219312
# 239864
# 259137
# 283508
# 301120
# 317001
# 334190
#
# Disc length: 4668 seconds
#
# Revision: 1
# Processed by: cddbd v1.5.1PL2 Copyright (c) Steve Scherf et al.
# Submitted via: RipIT 3.4 www.suwald.com/ripit/ripit.html at Thu Dec 29 12:59:49 CET 2005.
#
DISCID=e0123a10
DTITLE=Sade - The Best Of
DYEAR=2004
DGENRE=Pop
TTITLE0=Bright Blue Rose
TTITLE1=There Is A Train That Leaves Tonight
TTITLE2=Somebody Already Broken My Heart
TTITLE3=Slave Song
TTITLE4=No Ordinary Love
TTITLE5=Sit Acnime
TTITLE6=By Your Side
TTITLE7=The Sweetest Taboo
TTITLE8=Flow
TTITLE9=Paradise
TTITLE10=Smooth Operator
TTITLE11=Jezebel
TTITLE12=Never As Good As The First Time
TTITLE13=Paradise
TTITLE14=Nothing Can Come Between Us
TTITLE15=Like A Tatoo
EXTD=
EXTT0=
EXTT1=
EXTT2=
EXTT3=
EXTT4=
EXTT5=
EXTT6=
EXTT7=
EXTT8=
EXTT9=
EXTT10=
EXTT11=
EXTT12=
EXTT13=
EXTT14=
EXTT15=
PLAYORDER=
